<mxfile host="app.diagrams.net" agent="Mozilla/5.0 (Windows NT 10.0; Win64; x64) AppleWebKit/537.36 (KHTML, like Gecko) Chrome/134.0.0.0 Safari/537.36" version="24.9.1">
  <diagram id="w7Pc-hgwB0fIjy-vkwaY" name="PÃ¡gina-2">
    <mxGraphModel dx="766" dy="1576" grid="1" gridSize="10" guides="1" tooltips="1" connect="1" arrows="1" fold="1" page="1" pageScale="1" pageWidth="827" pageHeight="1169" math="0" shadow="0">
      <root>
        <mxCell id="0" />
        <mxCell id="1" parent="0" />
        <mxCell id="gyHEJuVLFBXWCzKAIYyM-4" value="Usuario" style="swimlane;fontStyle=0;childLayout=stackLayout;horizontal=1;startSize=26;fillColor=none;horizontalStack=0;resizeParent=1;resizeParentMax=0;resizeLast=0;collapsible=1;marginBottom=0;html=1;" vertex="1" parent="1">
          <mxGeometry x="457" y="130" width="200" height="250" as="geometry" />
        </mxCell>
        <mxCell id="gyHEJuVLFBXWCzKAIYyM-5" value="-id: int" style="text;strokeColor=none;fillColor=none;align=left;verticalAlign=top;spacingLeft=4;spacingRight=4;overflow=hidden;rotatable=0;points=[[0,0.5],[1,0.5]];portConstraint=eastwest;whiteSpace=wrap;html=1;" vertex="1" parent="gyHEJuVLFBXWCzKAIYyM-4">
          <mxGeometry y="26" width="200" height="26" as="geometry" />
        </mxCell>
        <mxCell id="gyHEJuVLFBXWCzKAIYyM-6" value="-nome: string" style="text;strokeColor=none;fillColor=none;align=left;verticalAlign=top;spacingLeft=4;spacingRight=4;overflow=hidden;rotatable=0;points=[[0,0.5],[1,0.5]];portConstraint=eastwest;whiteSpace=wrap;html=1;" vertex="1" parent="gyHEJuVLFBXWCzKAIYyM-4">
          <mxGeometry y="52" width="200" height="26" as="geometry" />
        </mxCell>
        <mxCell id="gyHEJuVLFBXWCzKAIYyM-7" value="-email: string" style="text;strokeColor=none;fillColor=none;align=left;verticalAlign=top;spacingLeft=4;spacingRight=4;overflow=hidden;rotatable=0;points=[[0,0.5],[1,0.5]];portConstraint=eastwest;whiteSpace=wrap;html=1;" vertex="1" parent="gyHEJuVLFBXWCzKAIYyM-4">
          <mxGeometry y="78" width="200" height="26" as="geometry" />
        </mxCell>
        <mxCell id="gyHEJuVLFBXWCzKAIYyM-52" value="-tipo: string" style="text;strokeColor=none;fillColor=none;align=left;verticalAlign=top;spacingLeft=4;spacingRight=4;overflow=hidden;rotatable=0;points=[[0,0.5],[1,0.5]];portConstraint=eastwest;whiteSpace=wrap;html=1;" vertex="1" parent="gyHEJuVLFBXWCzKAIYyM-4">
          <mxGeometry y="104" width="200" height="26" as="geometry" />
        </mxCell>
        <mxCell id="gyHEJuVLFBXWCzKAIYyM-8" value="-senha: string" style="text;strokeColor=none;fillColor=none;align=left;verticalAlign=top;spacingLeft=4;spacingRight=4;overflow=hidden;rotatable=0;points=[[0,0.5],[1,0.5]];portConstraint=eastwest;whiteSpace=wrap;html=1;" vertex="1" parent="gyHEJuVLFBXWCzKAIYyM-4">
          <mxGeometry y="130" width="200" height="26" as="geometry" />
        </mxCell>
        <mxCell id="gyHEJuVLFBXWCzKAIYyM-9" value="-login(): boolean" style="text;strokeColor=none;fillColor=none;align=left;verticalAlign=top;spacingLeft=4;spacingRight=4;overflow=hidden;rotatable=0;points=[[0,0.5],[1,0.5]];portConstraint=eastwest;whiteSpace=wrap;html=1;" vertex="1" parent="gyHEJuVLFBXWCzKAIYyM-4">
          <mxGeometry y="156" width="200" height="26" as="geometry" />
        </mxCell>
        <mxCell id="gyHEJuVLFBXWCzKAIYyM-10" value="-logout(): void" style="text;strokeColor=none;fillColor=none;align=left;verticalAlign=top;spacingLeft=4;spacingRight=4;overflow=hidden;rotatable=0;points=[[0,0.5],[1,0.5]];portConstraint=eastwest;whiteSpace=wrap;html=1;" vertex="1" parent="gyHEJuVLFBXWCzKAIYyM-4">
          <mxGeometry y="182" width="200" height="68" as="geometry" />
        </mxCell>
        <mxCell id="gyHEJuVLFBXWCzKAIYyM-13" value="Aluno" style="swimlane;fontStyle=0;childLayout=stackLayout;horizontal=1;startSize=26;fillColor=none;horizontalStack=0;resizeParent=1;resizeParentMax=0;resizeLast=0;collapsible=1;marginBottom=0;html=1;" vertex="1" parent="1">
          <mxGeometry x="157.5" y="-200" width="132.5" height="200" as="geometry" />
        </mxCell>
        <mxCell id="gyHEJuVLFBXWCzKAIYyM-15" value="+id: int" style="text;strokeColor=none;fillColor=none;align=left;verticalAlign=top;spacingLeft=4;spacingRight=4;overflow=hidden;rotatable=0;points=[[0,0.5],[1,0.5]];portConstraint=eastwest;whiteSpace=wrap;html=1;" vertex="1" parent="gyHEJuVLFBXWCzKAIYyM-13">
          <mxGeometry y="26" width="132.5" height="26" as="geometry" />
        </mxCell>
        <mxCell id="gyHEJuVLFBXWCzKAIYyM-54" value="-matricula: String" style="text;strokeColor=none;fillColor=none;align=left;verticalAlign=top;spacingLeft=4;spacingRight=4;overflow=hidden;rotatable=0;points=[[0,0.5],[1,0.5]];portConstraint=eastwest;whiteSpace=wrap;html=1;" vertex="1" parent="gyHEJuVLFBXWCzKAIYyM-13">
          <mxGeometry y="52" width="132.5" height="26" as="geometry" />
        </mxCell>
        <mxCell id="gyHEJuVLFBXWCzKAIYyM-55" value="+curso: String" style="text;strokeColor=none;fillColor=none;align=left;verticalAlign=top;spacingLeft=4;spacingRight=4;overflow=hidden;rotatable=0;points=[[0,0.5],[1,0.5]];portConstraint=eastwest;whiteSpace=wrap;html=1;" vertex="1" parent="gyHEJuVLFBXWCzKAIYyM-13">
          <mxGeometry y="78" width="132.5" height="26" as="geometry" />
        </mxCell>
        <mxCell id="gyHEJuVLFBXWCzKAIYyM-53" value="+anoIngresso: String" style="text;strokeColor=none;fillColor=none;align=left;verticalAlign=top;spacingLeft=4;spacingRight=4;overflow=hidden;rotatable=0;points=[[0,0.5],[1,0.5]];portConstraint=eastwest;whiteSpace=wrap;html=1;" vertex="1" parent="gyHEJuVLFBXWCzKAIYyM-13">
          <mxGeometry y="104" width="132.5" height="96" as="geometry" />
        </mxCell>
        <mxCell id="gyHEJuVLFBXWCzKAIYyM-39" value="" style="endArrow=none;html=1;rounded=0;" edge="1" parent="gyHEJuVLFBXWCzKAIYyM-13">
          <mxGeometry width="50" height="50" relative="1" as="geometry">
            <mxPoint y="148" as="sourcePoint" />
            <mxPoint x="132.5" y="148" as="targetPoint" />
          </mxGeometry>
        </mxCell>
        <mxCell id="gyHEJuVLFBXWCzKAIYyM-17" value="Professor" style="swimlane;fontStyle=0;childLayout=stackLayout;horizontal=1;startSize=26;fillColor=none;horizontalStack=0;resizeParent=1;resizeParentMax=0;resizeLast=0;collapsible=1;marginBottom=0;html=1;" vertex="1" parent="1">
          <mxGeometry x="750" y="-200" width="140" height="146" as="geometry" />
        </mxCell>
        <mxCell id="gyHEJuVLFBXWCzKAIYyM-61" value="+id:int" style="text;strokeColor=none;fillColor=none;align=left;verticalAlign=top;spacingLeft=4;spacingRight=4;overflow=hidden;rotatable=0;points=[[0,0.5],[1,0.5]];portConstraint=eastwest;whiteSpace=wrap;html=1;" vertex="1" parent="gyHEJuVLFBXWCzKAIYyM-17">
          <mxGeometry y="26" width="140" height="24" as="geometry" />
        </mxCell>
        <mxCell id="gyHEJuVLFBXWCzKAIYyM-104" value="+id:int" style="text;strokeColor=none;fillColor=none;align=left;verticalAlign=top;spacingLeft=4;spacingRight=4;overflow=hidden;rotatable=0;points=[[0,0.5],[1,0.5]];portConstraint=eastwest;whiteSpace=wrap;html=1;" vertex="1" parent="gyHEJuVLFBXWCzKAIYyM-17">
          <mxGeometry y="50" width="140" height="24" as="geometry" />
        </mxCell>
        <mxCell id="gyHEJuVLFBXWCzKAIYyM-64" value="+nome:String" style="text;strokeColor=none;fillColor=none;align=left;verticalAlign=top;spacingLeft=4;spacingRight=4;overflow=hidden;rotatable=0;points=[[0,0.5],[1,0.5]];portConstraint=eastwest;whiteSpace=wrap;html=1;" vertex="1" parent="gyHEJuVLFBXWCzKAIYyM-17">
          <mxGeometry y="74" width="140" height="24" as="geometry" />
        </mxCell>
        <mxCell id="gyHEJuVLFBXWCzKAIYyM-65" value="+email:String" style="text;strokeColor=none;fillColor=none;align=left;verticalAlign=top;spacingLeft=4;spacingRight=4;overflow=hidden;rotatable=0;points=[[0,0.5],[1,0.5]];portConstraint=eastwest;whiteSpace=wrap;html=1;" vertex="1" parent="gyHEJuVLFBXWCzKAIYyM-17">
          <mxGeometry y="98" width="140" height="24" as="geometry" />
        </mxCell>
        <mxCell id="gyHEJuVLFBXWCzKAIYyM-62" value="+codigo: int" style="text;strokeColor=none;fillColor=none;align=left;verticalAlign=top;spacingLeft=4;spacingRight=4;overflow=hidden;rotatable=0;points=[[0,0.5],[1,0.5]];portConstraint=eastwest;whiteSpace=wrap;html=1;" vertex="1" parent="gyHEJuVLFBXWCzKAIYyM-17">
          <mxGeometry y="122" width="140" height="24" as="geometry" />
        </mxCell>
        <mxCell id="gyHEJuVLFBXWCzKAIYyM-21" value="Coordenador" style="swimlane;fontStyle=0;childLayout=stackLayout;horizontal=1;startSize=26;fillColor=none;horizontalStack=0;resizeParent=1;resizeParentMax=0;resizeLast=0;collapsible=1;marginBottom=0;html=1;" vertex="1" parent="1">
          <mxGeometry x="540" y="-200" width="160" height="122" as="geometry" />
        </mxCell>
        <mxCell id="gyHEJuVLFBXWCzKAIYyM-68" value="+id:int" style="text;strokeColor=none;fillColor=none;align=left;verticalAlign=top;spacingLeft=4;spacingRight=4;overflow=hidden;rotatable=0;points=[[0,0.5],[1,0.5]];portConstraint=eastwest;whiteSpace=wrap;html=1;" vertex="1" parent="gyHEJuVLFBXWCzKAIYyM-21">
          <mxGeometry y="26" width="160" height="24" as="geometry" />
        </mxCell>
        <mxCell id="gyHEJuVLFBXWCzKAIYyM-69" value="+nome: String" style="text;strokeColor=none;fillColor=none;align=left;verticalAlign=top;spacingLeft=4;spacingRight=4;overflow=hidden;rotatable=0;points=[[0,0.5],[1,0.5]];portConstraint=eastwest;whiteSpace=wrap;html=1;" vertex="1" parent="gyHEJuVLFBXWCzKAIYyM-21">
          <mxGeometry y="50" width="160" height="24" as="geometry" />
        </mxCell>
        <mxCell id="gyHEJuVLFBXWCzKAIYyM-70" value="+email: String" style="text;strokeColor=none;fillColor=none;align=left;verticalAlign=top;spacingLeft=4;spacingRight=4;overflow=hidden;rotatable=0;points=[[0,0.5],[1,0.5]];portConstraint=eastwest;whiteSpace=wrap;html=1;" vertex="1" parent="gyHEJuVLFBXWCzKAIYyM-21">
          <mxGeometry y="74" width="160" height="24" as="geometry" />
        </mxCell>
        <mxCell id="gyHEJuVLFBXWCzKAIYyM-22" value="+cursoResponsavel: String" style="text;strokeColor=none;fillColor=none;align=left;verticalAlign=top;spacingLeft=4;spacingRight=4;overflow=hidden;rotatable=0;points=[[0,0.5],[1,0.5]];portConstraint=eastwest;whiteSpace=wrap;html=1;" vertex="1" parent="gyHEJuVLFBXWCzKAIYyM-21">
          <mxGeometry y="98" width="160" height="24" as="geometry" />
        </mxCell>
        <mxCell id="gyHEJuVLFBXWCzKAIYyM-25" value="Reitoria" style="swimlane;fontStyle=0;childLayout=stackLayout;horizontal=1;startSize=26;fillColor=none;horizontalStack=0;resizeParent=1;resizeParentMax=0;resizeLast=0;collapsible=1;marginBottom=0;html=1;" vertex="1" parent="1">
          <mxGeometry x="340" y="-200" width="160" height="122" as="geometry" />
        </mxCell>
        <mxCell id="gyHEJuVLFBXWCzKAIYyM-71" value="+id: int" style="text;strokeColor=none;fillColor=none;align=left;verticalAlign=top;spacingLeft=4;spacingRight=4;overflow=hidden;rotatable=0;points=[[0,0.5],[1,0.5]];portConstraint=eastwest;whiteSpace=wrap;html=1;" vertex="1" parent="gyHEJuVLFBXWCzKAIYyM-25">
          <mxGeometry y="26" width="160" height="24" as="geometry" />
        </mxCell>
        <mxCell id="gyHEJuVLFBXWCzKAIYyM-72" value="+nome:String" style="text;strokeColor=none;fillColor=none;align=left;verticalAlign=top;spacingLeft=4;spacingRight=4;overflow=hidden;rotatable=0;points=[[0,0.5],[1,0.5]];portConstraint=eastwest;whiteSpace=wrap;html=1;" vertex="1" parent="gyHEJuVLFBXWCzKAIYyM-25">
          <mxGeometry y="50" width="160" height="24" as="geometry" />
        </mxCell>
        <mxCell id="gyHEJuVLFBXWCzKAIYyM-74" value="+email: String" style="text;strokeColor=none;fillColor=none;align=left;verticalAlign=top;spacingLeft=4;spacingRight=4;overflow=hidden;rotatable=0;points=[[0,0.5],[1,0.5]];portConstraint=eastwest;whiteSpace=wrap;html=1;" vertex="1" parent="gyHEJuVLFBXWCzKAIYyM-25">
          <mxGeometry y="74" width="160" height="24" as="geometry" />
        </mxCell>
        <mxCell id="gyHEJuVLFBXWCzKAIYyM-73" value="+gestaoAcademica: String" style="text;strokeColor=none;fillColor=none;align=left;verticalAlign=top;spacingLeft=4;spacingRight=4;overflow=hidden;rotatable=0;points=[[0,0.5],[1,0.5]];portConstraint=eastwest;whiteSpace=wrap;html=1;" vertex="1" parent="gyHEJuVLFBXWCzKAIYyM-25">
          <mxGeometry y="98" width="160" height="24" as="geometry" />
        </mxCell>
        <mxCell id="gyHEJuVLFBXWCzKAIYyM-29" value="Feed" style="swimlane;fontStyle=0;childLayout=stackLayout;horizontal=1;startSize=26;fillColor=none;horizontalStack=0;resizeParent=1;resizeParentMax=0;resizeLast=0;collapsible=1;marginBottom=0;html=1;" vertex="1" parent="1">
          <mxGeometry x="750" y="350" width="170" height="208" as="geometry" />
        </mxCell>
        <mxCell id="gyHEJuVLFBXWCzKAIYyM-30" value="+id: int" style="text;strokeColor=none;fillColor=none;align=left;verticalAlign=top;spacingLeft=4;spacingRight=4;overflow=hidden;rotatable=0;points=[[0,0.5],[1,0.5]];portConstraint=eastwest;whiteSpace=wrap;html=1;" vertex="1" parent="gyHEJuVLFBXWCzKAIYyM-29">
          <mxGeometry y="26" width="170" height="26" as="geometry" />
        </mxCell>
        <mxCell id="gyHEJuVLFBXWCzKAIYyM-31" value="+titulo: String" style="text;strokeColor=none;fillColor=none;align=left;verticalAlign=top;spacingLeft=4;spacingRight=4;overflow=hidden;rotatable=0;points=[[0,0.5],[1,0.5]];portConstraint=eastwest;whiteSpace=wrap;html=1;" vertex="1" parent="gyHEJuVLFBXWCzKAIYyM-29">
          <mxGeometry y="52" width="170" height="26" as="geometry" />
        </mxCell>
        <mxCell id="gyHEJuVLFBXWCzKAIYyM-32" value="+mensagem: String" style="text;strokeColor=none;fillColor=none;align=left;verticalAlign=top;spacingLeft=4;spacingRight=4;overflow=hidden;rotatable=0;points=[[0,0.5],[1,0.5]];portConstraint=eastwest;whiteSpace=wrap;html=1;" vertex="1" parent="gyHEJuVLFBXWCzKAIYyM-29">
          <mxGeometry y="78" width="170" height="26" as="geometry" />
        </mxCell>
        <mxCell id="gyHEJuVLFBXWCzKAIYyM-76" value="+dataPublicacao: Date" style="text;strokeColor=none;fillColor=none;align=left;verticalAlign=top;spacingLeft=4;spacingRight=4;overflow=hidden;rotatable=0;points=[[0,0.5],[1,0.5]];portConstraint=eastwest;whiteSpace=wrap;html=1;" vertex="1" parent="gyHEJuVLFBXWCzKAIYyM-29">
          <mxGeometry y="104" width="170" height="26" as="geometry" />
        </mxCell>
        <mxCell id="gyHEJuVLFBXWCzKAIYyM-77" value="+autor: Usuario&amp;nbsp;" style="text;strokeColor=none;fillColor=none;align=left;verticalAlign=top;spacingLeft=4;spacingRight=4;overflow=hidden;rotatable=0;points=[[0,0.5],[1,0.5]];portConstraint=eastwest;whiteSpace=wrap;html=1;" vertex="1" parent="gyHEJuVLFBXWCzKAIYyM-29">
          <mxGeometry y="130" width="170" height="26" as="geometry" />
        </mxCell>
        <mxCell id="gyHEJuVLFBXWCzKAIYyM-78" value="+autor: Usuario&amp;nbsp;" style="text;strokeColor=none;fillColor=none;align=left;verticalAlign=top;spacingLeft=4;spacingRight=4;overflow=hidden;rotatable=0;points=[[0,0.5],[1,0.5]];portConstraint=eastwest;whiteSpace=wrap;html=1;" vertex="1" parent="gyHEJuVLFBXWCzKAIYyM-29">
          <mxGeometry y="156" width="170" height="26" as="geometry" />
        </mxCell>
        <mxCell id="gyHEJuVLFBXWCzKAIYyM-79" value="+publicarMensagem(): Void&amp;nbsp;" style="text;strokeColor=none;fillColor=none;align=left;verticalAlign=top;spacingLeft=4;spacingRight=4;overflow=hidden;rotatable=0;points=[[0,0.5],[1,0.5]];portConstraint=eastwest;whiteSpace=wrap;html=1;" vertex="1" parent="gyHEJuVLFBXWCzKAIYyM-29">
          <mxGeometry y="182" width="170" height="26" as="geometry" />
        </mxCell>
        <mxCell id="gyHEJuVLFBXWCzKAIYyM-168" value="" style="edgeStyle=orthogonalEdgeStyle;rounded=0;orthogonalLoop=1;jettySize=auto;html=1;entryX=0;entryY=0.5;entryDx=0;entryDy=0;" edge="1" parent="1" source="gyHEJuVLFBXWCzKAIYyM-46" target="gyHEJuVLFBXWCzKAIYyM-7">
          <mxGeometry relative="1" as="geometry">
            <mxPoint x="172.5" y="135" as="targetPoint" />
          </mxGeometry>
        </mxCell>
        <mxCell id="gyHEJuVLFBXWCzKAIYyM-46" value="Chat" style="swimlane;fontStyle=0;childLayout=stackLayout;horizontal=1;startSize=30;horizontalStack=0;resizeParent=1;resizeParentMax=0;resizeLast=0;collapsible=1;marginBottom=0;whiteSpace=wrap;html=1;" vertex="1" parent="1">
          <mxGeometry x="95" y="320" width="155" height="210" as="geometry" />
        </mxCell>
        <mxCell id="gyHEJuVLFBXWCzKAIYyM-47" value="+id: int&amp;nbsp;" style="text;strokeColor=none;fillColor=none;align=left;verticalAlign=middle;spacingLeft=4;spacingRight=4;overflow=hidden;points=[[0,0.5],[1,0.5]];portConstraint=eastwest;rotatable=0;whiteSpace=wrap;html=1;" vertex="1" parent="gyHEJuVLFBXWCzKAIYyM-46">
          <mxGeometry y="30" width="155" height="30" as="geometry" />
        </mxCell>
        <mxCell id="gyHEJuVLFBXWCzKAIYyM-48" value="+mensagem: String" style="text;strokeColor=none;fillColor=none;align=left;verticalAlign=middle;spacingLeft=4;spacingRight=4;overflow=hidden;points=[[0,0.5],[1,0.5]];portConstraint=eastwest;rotatable=0;whiteSpace=wrap;html=1;" vertex="1" parent="gyHEJuVLFBXWCzKAIYyM-46">
          <mxGeometry y="60" width="155" height="30" as="geometry" />
        </mxCell>
        <mxCell id="gyHEJuVLFBXWCzKAIYyM-49" value="+dataEnvio: Date" style="text;strokeColor=none;fillColor=none;align=left;verticalAlign=middle;spacingLeft=4;spacingRight=4;overflow=hidden;points=[[0,0.5],[1,0.5]];portConstraint=eastwest;rotatable=0;whiteSpace=wrap;html=1;" vertex="1" parent="gyHEJuVLFBXWCzKAIYyM-46">
          <mxGeometry y="90" width="155" height="30" as="geometry" />
        </mxCell>
        <mxCell id="gyHEJuVLFBXWCzKAIYyM-81" value="+remetente: Usuario" style="text;strokeColor=none;fillColor=none;align=left;verticalAlign=middle;spacingLeft=4;spacingRight=4;overflow=hidden;points=[[0,0.5],[1,0.5]];portConstraint=eastwest;rotatable=0;whiteSpace=wrap;html=1;" vertex="1" parent="gyHEJuVLFBXWCzKAIYyM-46">
          <mxGeometry y="120" width="155" height="30" as="geometry" />
        </mxCell>
        <mxCell id="gyHEJuVLFBXWCzKAIYyM-82" value="+destinatario: Usuario" style="text;strokeColor=none;fillColor=none;align=left;verticalAlign=middle;spacingLeft=4;spacingRight=4;overflow=hidden;points=[[0,0.5],[1,0.5]];portConstraint=eastwest;rotatable=0;whiteSpace=wrap;html=1;" vertex="1" parent="gyHEJuVLFBXWCzKAIYyM-46">
          <mxGeometry y="150" width="155" height="30" as="geometry" />
        </mxCell>
        <mxCell id="gyHEJuVLFBXWCzKAIYyM-83" value="+enviarMensagem(): Void" style="text;strokeColor=none;fillColor=none;align=left;verticalAlign=middle;spacingLeft=4;spacingRight=4;overflow=hidden;points=[[0,0.5],[1,0.5]];portConstraint=eastwest;rotatable=0;whiteSpace=wrap;html=1;" vertex="1" parent="gyHEJuVLFBXWCzKAIYyM-46">
          <mxGeometry y="180" width="155" height="30" as="geometry" />
        </mxCell>
        <mxCell id="gyHEJuVLFBXWCzKAIYyM-85" value="CalendarioAcademico" style="swimlane;fontStyle=0;childLayout=stackLayout;horizontal=1;startSize=30;horizontalStack=0;resizeParent=1;resizeParentMax=0;resizeLast=0;collapsible=1;marginBottom=0;whiteSpace=wrap;html=1;" vertex="1" parent="1">
          <mxGeometry x="467" y="530" width="180" height="180" as="geometry" />
        </mxCell>
        <mxCell id="gyHEJuVLFBXWCzKAIYyM-86" value="+id: int" style="text;strokeColor=none;fillColor=none;align=left;verticalAlign=middle;spacingLeft=4;spacingRight=4;overflow=hidden;points=[[0,0.5],[1,0.5]];portConstraint=eastwest;rotatable=0;whiteSpace=wrap;html=1;" vertex="1" parent="gyHEJuVLFBXWCzKAIYyM-85">
          <mxGeometry y="30" width="180" height="30" as="geometry" />
        </mxCell>
        <mxCell id="gyHEJuVLFBXWCzKAIYyM-87" value="+evento: String" style="text;strokeColor=none;fillColor=none;align=left;verticalAlign=middle;spacingLeft=4;spacingRight=4;overflow=hidden;points=[[0,0.5],[1,0.5]];portConstraint=eastwest;rotatable=0;whiteSpace=wrap;html=1;" vertex="1" parent="gyHEJuVLFBXWCzKAIYyM-85">
          <mxGeometry y="60" width="180" height="30" as="geometry" />
        </mxCell>
        <mxCell id="gyHEJuVLFBXWCzKAIYyM-88" value="+descricao: String" style="text;strokeColor=none;fillColor=none;align=left;verticalAlign=middle;spacingLeft=4;spacingRight=4;overflow=hidden;points=[[0,0.5],[1,0.5]];portConstraint=eastwest;rotatable=0;whiteSpace=wrap;html=1;" vertex="1" parent="gyHEJuVLFBXWCzKAIYyM-85">
          <mxGeometry y="90" width="180" height="30" as="geometry" />
        </mxCell>
        <mxCell id="gyHEJuVLFBXWCzKAIYyM-89" value="+dataEvento: Date" style="text;strokeColor=none;fillColor=none;align=left;verticalAlign=middle;spacingLeft=4;spacingRight=4;overflow=hidden;points=[[0,0.5],[1,0.5]];portConstraint=eastwest;rotatable=0;whiteSpace=wrap;html=1;" vertex="1" parent="gyHEJuVLFBXWCzKAIYyM-85">
          <mxGeometry y="120" width="180" height="30" as="geometry" />
        </mxCell>
        <mxCell id="gyHEJuVLFBXWCzKAIYyM-90" value="+adicionarEvento(): void" style="text;strokeColor=none;fillColor=none;align=left;verticalAlign=middle;spacingLeft=4;spacingRight=4;overflow=hidden;points=[[0,0.5],[1,0.5]];portConstraint=eastwest;rotatable=0;whiteSpace=wrap;html=1;" vertex="1" parent="gyHEJuVLFBXWCzKAIYyM-85">
          <mxGeometry y="150" width="180" height="30" as="geometry" />
        </mxCell>
        <mxCell id="gyHEJuVLFBXWCzKAIYyM-136" value="" style="endArrow=classic;html=1;rounded=0;" edge="1" parent="1">
          <mxGeometry width="50" height="50" relative="1" as="geometry">
            <mxPoint x="560" y="50" as="sourcePoint" />
            <mxPoint x="560" y="130" as="targetPoint" />
          </mxGeometry>
        </mxCell>
        <mxCell id="gyHEJuVLFBXWCzKAIYyM-137" value="" style="endArrow=none;html=1;rounded=0;entryX=0.529;entryY=1.083;entryDx=0;entryDy=0;entryPerimeter=0;" edge="1" parent="1" target="gyHEJuVLFBXWCzKAIYyM-73">
          <mxGeometry width="50" height="50" relative="1" as="geometry">
            <mxPoint x="425" y="50" as="sourcePoint" />
            <mxPoint x="490" y="-100" as="targetPoint" />
          </mxGeometry>
        </mxCell>
        <mxCell id="gyHEJuVLFBXWCzKAIYyM-138" value="" style="endArrow=none;html=1;rounded=0;entryX=0.561;entryY=1.156;entryDx=0;entryDy=0;entryPerimeter=0;" edge="1" parent="1" target="gyHEJuVLFBXWCzKAIYyM-22">
          <mxGeometry width="50" height="50" relative="1" as="geometry">
            <mxPoint x="630" y="50" as="sourcePoint" />
            <mxPoint x="490" y="-100" as="targetPoint" />
          </mxGeometry>
        </mxCell>
        <mxCell id="gyHEJuVLFBXWCzKAIYyM-139" value="" style="endArrow=none;html=1;rounded=0;entryX=0.5;entryY=1.167;entryDx=0;entryDy=0;entryPerimeter=0;" edge="1" parent="1" target="gyHEJuVLFBXWCzKAIYyM-62">
          <mxGeometry width="50" height="50" relative="1" as="geometry">
            <mxPoint x="820" y="50" as="sourcePoint" />
            <mxPoint x="800" y="-100" as="targetPoint" />
          </mxGeometry>
        </mxCell>
        <mxCell id="gyHEJuVLFBXWCzKAIYyM-140" value="" style="endArrow=none;html=1;rounded=0;entryX=0.486;entryY=1.033;entryDx=0;entryDy=0;entryPerimeter=0;" edge="1" parent="1" target="gyHEJuVLFBXWCzKAIYyM-53">
          <mxGeometry width="50" height="50" relative="1" as="geometry">
            <mxPoint x="222" y="50" as="sourcePoint" />
            <mxPoint x="360" y="-100" as="targetPoint" />
          </mxGeometry>
        </mxCell>
        <mxCell id="gyHEJuVLFBXWCzKAIYyM-142" value="" style="endArrow=none;html=1;rounded=0;" edge="1" parent="1">
          <mxGeometry width="50" height="50" relative="1" as="geometry">
            <mxPoint x="820" y="50" as="sourcePoint" />
            <mxPoint x="220" y="50" as="targetPoint" />
          </mxGeometry>
        </mxCell>
        <mxCell id="gyHEJuVLFBXWCzKAIYyM-145" value="" style="edgeStyle=orthogonalEdgeStyle;rounded=0;orthogonalLoop=1;jettySize=auto;html=1;" edge="1" parent="1" source="gyHEJuVLFBXWCzKAIYyM-143" target="gyHEJuVLFBXWCzKAIYyM-144">
          <mxGeometry relative="1" as="geometry" />
        </mxCell>
        <mxCell id="gyHEJuVLFBXWCzKAIYyM-143" value="" style="rhombus;whiteSpace=wrap;html=1;" vertex="1" parent="1">
          <mxGeometry x="546.5" y="710" width="21" height="20" as="geometry" />
        </mxCell>
        <mxCell id="gyHEJuVLFBXWCzKAIYyM-144" value="Evento" style="rounded=0;whiteSpace=wrap;html=1;" vertex="1" parent="1">
          <mxGeometry x="512" y="800" width="90" height="30" as="geometry" />
        </mxCell>
        <mxCell id="gyHEJuVLFBXWCzKAIYyM-147" value="*" style="text;html=1;align=center;verticalAlign=middle;resizable=0;points=[];autosize=1;strokeColor=none;fillColor=none;" vertex="1" parent="1">
          <mxGeometry x="560" y="770" width="30" height="30" as="geometry" />
        </mxCell>
        <mxCell id="gyHEJuVLFBXWCzKAIYyM-148" value="1" style="text;html=1;align=center;verticalAlign=middle;resizable=0;points=[];autosize=1;strokeColor=none;fillColor=none;" vertex="1" parent="1">
          <mxGeometry x="516.5" y="705" width="30" height="30" as="geometry" />
        </mxCell>
        <mxCell id="gyHEJuVLFBXWCzKAIYyM-153" value="Mensagem" style="html=1;whiteSpace=wrap;" vertex="1" parent="1">
          <mxGeometry x="116.25" y="620" width="112.5" height="35" as="geometry" />
        </mxCell>
        <mxCell id="gyHEJuVLFBXWCzKAIYyM-158" value="" style="rhombus;whiteSpace=wrap;html=1;fillColor=#000000;" vertex="1" parent="1">
          <mxGeometry x="162" y="530" width="21" height="20" as="geometry" />
        </mxCell>
        <mxCell id="gyHEJuVLFBXWCzKAIYyM-163" value="" style="endArrow=none;html=1;rounded=0;exitX=0.5;exitY=1;exitDx=0;exitDy=0;" edge="1" parent="1" source="gyHEJuVLFBXWCzKAIYyM-158" target="gyHEJuVLFBXWCzKAIYyM-153">
          <mxGeometry width="50" height="50" relative="1" as="geometry">
            <mxPoint x="400" y="600" as="sourcePoint" />
            <mxPoint x="450" y="550" as="targetPoint" />
          </mxGeometry>
        </mxCell>
        <mxCell id="gyHEJuVLFBXWCzKAIYyM-164" value="*" style="text;html=1;align=center;verticalAlign=middle;resizable=0;points=[];autosize=1;strokeColor=none;fillColor=none;" vertex="1" parent="1">
          <mxGeometry x="170" y="590" width="30" height="30" as="geometry" />
        </mxCell>
        <mxCell id="gyHEJuVLFBXWCzKAIYyM-165" value="1" style="text;html=1;align=center;verticalAlign=middle;resizable=0;points=[];autosize=1;strokeColor=none;fillColor=none;" vertex="1" parent="1">
          <mxGeometry x="132" y="525" width="30" height="30" as="geometry" />
        </mxCell>
        <mxCell id="gyHEJuVLFBXWCzKAIYyM-166" value="" style="endArrow=classic;html=1;rounded=0;entryX=0.515;entryY=1.033;entryDx=0;entryDy=0;entryPerimeter=0;" edge="1" parent="1" target="gyHEJuVLFBXWCzKAIYyM-10">
          <mxGeometry width="50" height="50" relative="1" as="geometry">
            <mxPoint x="560" y="530" as="sourcePoint" />
            <mxPoint x="450" y="420" as="targetPoint" />
          </mxGeometry>
        </mxCell>
        <mxCell id="gyHEJuVLFBXWCzKAIYyM-169" value="- - &amp;gt;" style="text;html=1;align=center;verticalAlign=middle;resizable=0;points=[];autosize=1;strokeColor=none;fillColor=none;" vertex="1" parent="1">
          <mxGeometry x="560" y="500" width="50" height="30" as="geometry" />
        </mxCell>
        <mxCell id="gyHEJuVLFBXWCzKAIYyM-170" value="usario usa o calendario mais nao depende dele para existir" style="text;html=1;align=center;verticalAlign=middle;whiteSpace=wrap;rounded=0;rotation=-90;" vertex="1" parent="1">
          <mxGeometry x="466.5" y="440" width="143.5" height="30" as="geometry" />
        </mxCell>
      </root>
    </mxGraphModel>
  </diagram>
</mxfile>
